<svg width="40" height="40" viewBox="0 0 40 40" xmlns="http://www.w3.org/2000/svg"><title>Group</title><g fill-rule="nonzero" fill="none"><path d="M24.386 31.71V31.71" fill="#4E4D4D"/><path d="M26.193 20.048h-6.145c0 2.12.338 4.145.964 6.048 2.892-.482 5.133-3.012 5.18-6.048M39.783 21.06c-.385 6.868-4.24 12.795-9.855 16.073 2.94 1.686 6.36 2.674 9.855 2.674V21.06z" fill="#FFF" opacity=".7"/><path d="M13.855 20.048H.217c.024 5.446 2.217 10.41 5.807 13.976l9.64-9.638c-1.134-1.11-1.784-2.65-1.81-4.338" fill="#FFF" opacity=".6"/><path d="M20 26.17c-1.687 0-3.23-.7-4.36-1.784L6 34.024c3.59 3.566 8.554 5.783 14 5.783.024 0-.024 0 0 0V26.17s.024 0 0 0" fill="#FFF" opacity=".85"/><path d="M20.096 13.735c.024 0-.024 0 0 0V.095c-.024 0 .024 0 0 0-5.518 0-10.53 2.242-14.12 5.88l9.638 9.664c1.11-1.158 2.747-1.905 4.482-1.905" fill="#FFF" opacity=".95"/><path d="M13.855 19.952c0-1.663.675-3.205 1.76-4.313l-9.64-9.664C2.41 9.566.218 14.506.218 19.952v.096h13.638v-.096" fill="#FFF" opacity=".7"/><path d="M24.386 15.59l9.638-9.638C30.458 2.386 25.518.17 20.096.12v13.615c1.663.048 3.18.747 4.29 1.855" fill="#FFF" opacity=".6"/><path d="M20.988 26.096c-.313.05-.65.073-.964.073v13.637c3.615 0 7.012-.988 9.928-2.674-1.518-.868-2.892-1.928-4.12-3.133-2.193-2.193-3.88-4.892-4.844-7.904" fill="#FFF" opacity=".7"/><path d="M39.783 21.06v-1.012H26.17c-.05 3.06-2.29 5.566-5.206 6.048.964 3.012 2.65 5.71 4.843 7.904 1.205 1.205 2.603 2.265 4.12 3.133 5.615-3.253 9.495-9.205 9.856-16.073" fill="#FFF" opacity=".98"/></g></svg>